#N canvas 441 199 871 619 12;
#X obj 158 103 oscparse;
#X obj 326 193 bng 15 250 50 0 empty empty empty 17 7 0 10 -262144
-1 -1;
#X obj 402 140 route list;
#X obj 577 286 route x y z;
#X obj 271 311 spigot;
#X obj 143 216 tgl 15 0 empty empty empty 17 7 0 10 -262144 -1 -1 0
1;
#X text 14 188 start/stop recording;
#X obj 145 277 select 0;
#X msg 146 324 0;
#X floatatom 147 408 5 0 0 0 - - -;
#X obj 147 446 + 1;
#X msg 78 365 set \$1;
#X obj 426 514 textfile;
#X msg 642 421 clear;
#X msg 577 485 write output.txt;
#X obj 328 447 list prepend add;
#X obj 329 479 list trim;
#X msg 559 427 print;
#X obj 399 289 route x y z;
#X obj 424 388 pack i f f f f f f;
#X obj 158 64 netreceive -u -b 8002;
#X obj 367 293 bng 15 250 50 0 empty empty empty 17 7 0 10 -262144
-1 -1;
#X obj 671 286 bng 15 250 50 0 empty empty empty 17 7 0 10 -262144
-1 -1;
#X text 356 59 works with OSChook v2 - enable Accelerometer and Linear
Acceleration;
#X obj 395 242 route accelerometer;
#X obj 573 243 route linear_acceleration;
#X floatatom 365 356 5 0 0 0 - - -;
#X floatatom 675 378 5 0 0 0 - - -;
#X connect 0 0 1 0;
#X connect 0 0 2 0;
#X connect 1 0 4 0;
#X connect 2 0 24 0;
#X connect 2 0 25 0;
#X connect 3 0 19 4;
#X connect 3 0 27 0;
#X connect 3 1 19 5;
#X connect 3 2 19 6;
#X connect 4 0 9 0;
#X connect 5 0 4 1;
#X connect 5 0 7 0;
#X connect 7 0 8 0;
#X connect 8 0 11 0;
#X connect 9 0 10 0;
#X connect 10 0 11 0;
#X connect 10 0 19 0;
#X connect 11 0 9 0;
#X connect 13 0 12 0;
#X connect 14 0 12 0;
#X connect 15 0 16 0;
#X connect 16 0 12 0;
#X connect 17 0 12 0;
#X connect 18 0 19 1;
#X connect 18 0 26 0;
#X connect 18 1 19 2;
#X connect 18 2 19 3;
#X connect 19 0 15 0;
#X connect 20 0 0 0;
#X connect 24 0 18 0;
#X connect 24 0 21 0;
#X connect 25 0 3 0;
#X connect 25 0 22 0;
