#N canvas 121 23 674 607 10;
#X obj 32 324 *~;
#X obj 60 218 vline~;
#X obj 224 489 outlet~;
#X obj 256 93 mtof;
#X obj 276 164 /;
#X msg 252 140 1000;
#X obj 254 115 t b f;
#X obj 244 52 t f;
#X obj 241 323 line~;
#X obj 250 297 pack 0 2;
#X obj 92 254 noise~;
#X obj 224 458 *~ 0.9999;
#X text 291 461 decay;
#X text 287 433 cutt-off;
#X obj 34 17 inlet trigger2;
#X obj 139 19 inlet pitch2;
#X obj 371 31 inlet cutoff2;
#X obj 462 32 inlet decay2;
#X obj 241 367 vd~ \$0-delay2 12;
#X msg 78 164 1 1 \, 0 20 5;
#X obj 546 31 inlet noisefq1;
#X msg 78 79 0 \, 1 10 0 \, 0 20 15;
#X floatatom 381 264 5 0 0 0 - - -;
#X obj 92 297 lop~ 500;
#X obj 40 548 delwrite~ \$0-delay2 200;
#X obj 224 431 lop~ 3500;
#X obj 81 343 bp~ 3000 7;
#X obj 105 371 bp~ 5107 10;
#N canvas 462 138 269 210 rand-loudness 0;
#X obj 101 40 inlet;
#X obj 101 116 / 100;
#X msg 101 92 100;
#X obj 101 137 + 0.5;
#X obj 101 67 random 50;
#X obj 101 158 outlet;
#X connect 0 0 4 0;
#X connect 1 0 3 0;
#X connect 2 0 1 0;
#X connect 3 0 5 0;
#X connect 4 0 2 0;
#X restore 382 495 pd rand-loudness;
#X obj 73 436 *~;
#X obj 87 53 t b b;
#X connect 0 0 29 0;
#X connect 1 0 0 1;
#X connect 3 0 6 0;
#X connect 4 0 9 0;
#X connect 4 0 22 0;
#X connect 5 0 4 0;
#X connect 6 0 5 0;
#X connect 6 1 4 1;
#X connect 7 0 3 0;
#X connect 8 0 18 0;
#X connect 9 0 8 0;
#X connect 10 0 26 0;
#X connect 10 0 27 0;
#X connect 10 0 23 0;
#X connect 11 0 2 0;
#X connect 11 0 24 0;
#X connect 14 0 30 0;
#X connect 15 0 7 0;
#X connect 16 0 25 1;
#X connect 17 0 11 1;
#X connect 18 0 25 0;
#X connect 19 0 1 0;
#X connect 20 0 23 1;
#X connect 21 0 1 0;
#X connect 23 0 0 0;
#X connect 25 0 11 0;
#X connect 28 0 29 1;
#X connect 29 0 24 0;
#X connect 30 0 21 0;
#X connect 30 1 28 0;
