#N canvas 698 233 428 511 10;
#X obj 35 23 inlet;
#X obj 26 213 -;
#X obj 81 324 /;
#X obj 106 370 *;
#X obj 106 430 +;
#X obj 106 450 outlet;
#X obj 65 173 t a a;
#X obj 108 237 pack f f;
#X msg 108 257 \$1 \$2;
#X obj 108 277 -;
#X obj 126 204 t b a;
#X obj 198 248 t a a;
#X obj 243 296 pack f f;
#X msg 243 316 \$1 \$2;
#X obj 243 336 -;
#X obj 283 270 t b a;
#X obj 326 59 loadbang;
#X obj 326 79 t b b b b;
#X obj 65 144 f \$1;
#X obj 290 248 f \$4;
#X obj 205 226 f \$3;
#X obj 155 178 f \$2;
#X obj 142 64 unpack f f f f;
#X obj 141 38 inlet;
#X text 320 249 #4 (out max);
#X text 234 224 #3 (out min);
#X text 185 178 #2 (in max);
#X text 98 144 contains the argument #1 (in min);
#X text 181 37 or \, you can dynamically change the scale;
#X connect 0 0 1 0;
#X connect 1 0 2 0;
#X connect 2 0 3 0;
#X connect 3 0 4 0;
#X connect 4 0 5 0;
#X connect 6 0 1 1;
#X connect 6 1 7 0;
#X connect 7 0 8 0;
#X connect 8 0 9 0;
#X connect 9 0 2 1;
#X connect 10 0 7 0;
#X connect 10 1 7 1;
#X connect 11 0 12 0;
#X connect 11 1 4 1;
#X connect 12 0 13 0;
#X connect 13 0 14 0;
#X connect 14 0 3 1;
#X connect 15 0 12 0;
#X connect 15 1 12 1;
#X connect 16 0 17 0;
#X connect 17 0 18 0;
#X connect 17 1 21 0;
#X connect 17 2 20 0;
#X connect 17 3 19 0;
#X connect 18 0 6 0;
#X connect 19 0 15 0;
#X connect 20 0 11 0;
#X connect 21 0 10 0;
#X connect 22 0 6 0;
#X connect 22 1 10 0;
#X connect 22 2 11 0;
#X connect 22 3 15 0;
#X connect 23 0 22 0;
